# xmcd CD database file
#
# Track frame offsets:
#	150
#	34644
#	54790
#	72455
#	118832
#	168513
#	199388
#	223083
#
# Disc length: 3493 seconds
#
# Revision: 0
# Processed by: cddbd v1.5.2PL0 Copyright (c) Steve Scherf et al.
# Submitted via: CDex 1.51
#
DISCID=770da308
DTITLE=Audible Architecture - Soul Talk
DYEAR=2007
DGENRE=Jazz
TTITLE0=11 in 8
TTITLE1=The Seventh Way
TTITLE2=Hyper Space
TTITLE3=The Final Funkdown
TTITLE4=Another planet in the Universe
TTITLE5=Psycho Train
TTITLE6=Into the Rhodes
TTITLE7=Hitch-hiking
EXTD=YEAR: 2007
EXTT0=
EXTT1=
EXTT2=
EXTT3=
EXTT4=
EXTT5=
EXTT6=
EXTT7=
PLAYORDER=
